<?xml version="1.0" standalone="no"?>
<!DOCTYPE svg PUBLIC "-//W3C//DTD SVG 20010904//EN"
 "http://www.w3.org/TR/2001/REC-SVG-20010904/DTD/svg10.dtd">
<svg version="1.0" xmlns="http://www.w3.org/2000/svg"
 width="512.000000pt" height="512.000000pt" viewBox="0 0 512.000000 512.000000"
 preserveAspectRatio="xMidYMid meet">
<metadata>
Created by potrace 1.16, written by Peter Selinger 2001-2019
</metadata>
<g transform="translate(0.000000,512.000000) scale(0.100000,-0.100000)"
fill="#000000" stroke="none">
<path d="M1314 4787 l-182 -332 -336 -185 c-185 -101 -336 -187 -336 -190 0
-3 151 -88 336 -190 l337 -185 181 -332 c99 -183 185 -331 190 -330 5 2 90
152 190 334 l180 331 338 183 c186 101 337 186 337 189 0 3 -151 88 -337 189
l-337 184 -181 330 c-100 182 -185 332 -190 334 -5 2 -91 -147 -190 -330z"/>
<path d="M4080 4838 l-155 -282 -280 -153 c-154 -84 -281 -156 -282 -161 -2
-4 124 -76 280 -161 l283 -154 154 -283 c85 -156 158 -283 162 -281 5 1 77
128 161 282 l153 280 282 154 c155 85 281 159 279 164 -1 5 -128 77 -281 161
l-279 153 -153 279 c-84 153 -156 280 -161 281 -5 2 -78 -124 -163 -279z"/>
<path d="M2802 3477 l-432 -432 338 -338 337 -337 433 433 432 432 -338 338
-337 337 -433 -433z"/>
<path d="M1082 1757 c-595 -595 -1082 -1087 -1082 -1092 0 -13 652 -665 665
-665 6 0 497 487 1093 1083 l1082 1082 -338 338 -337 337 -1083 -1083z"/>
<path d="M4081 2505 l-155 -284 -279 -153 c-154 -84 -280 -157 -281 -162 0 -5
125 -78 280 -163 l281 -153 154 -285 c85 -156 156 -285 159 -285 3 0 75 128
160 284 l155 285 279 153 c154 84 281 158 282 163 2 6 -124 79 -279 164 l-282
153 -155 284 c-85 156 -157 284 -160 284 -3 -1 -74 -129 -159 -285z"/>
</g>
</svg>
